<svg xmlns="http://www.w3.org/2000/svg" viewBox="0 0 135.46666 135.46667" fill="#aac8ff">
  <path d="m 83.390839,118.97169 c -17.5331,-1.38593 -40.580356,-3.2061 -51.216123,-4.04483 -10.635774,-0.83873 -19.343145,-1.53875 -19.349713,-1.55559 -0.0067,-0.0168 0.271061,-3.60594 0.616957,-7.97577 0.524227,-6.622803 0.673468,-7.953728 0.896683,-7.996666 0.147279,-0.02827 5.330984,0.348112 11.519334,0.836542 6.188357,0.48844 11.432425,0.887672 11.65349,0.887208 0.221058,-4.75e-4 -0.361108,-0.344965 -1.293717,-0.765547 -10.85246,-4.894184 -17.606096,-15.20297 -19.051892,-29.080929 -0.214196,-2.05606 -0.215385,-8.199182 -0.002,-10.243462 0.0862,-0.825659 0.403022,-4.518554 0.704054,-8.206435 0.301039,-3.68788 0.563283,-6.714021 0.582775,-6.724757 0.06508,-0.03587 102.265783,8.044982 102.299303,8.088642 0.0264,0.0344 -1.29208,16.812934 -1.32207,16.824253 -0.005,0.0018 -4.67754,-0.371033 -10.38429,-0.828377 -5.70677,-0.457342 -10.647048,-0.836271 -10.978412,-0.842061 -0.51571,-0.009 -0.340676,0.1175 1.215384,0.87845 9.664038,4.725934 15.584078,13.636244 17.245208,25.95596 0.30006,2.225327 0.41086,8.770619 0.19137,11.303129 -0.0547,0.63138 -0.35358,4.44619 -0.66412,8.47735 -0.31054,4.03115 -0.61395,7.37513 -0.67425,7.43106 -0.0603,0.0559 -14.45489,-1.03225 -31.987995,-2.41817 z M 97.619166,102.7011 c 0.197917,-1.84812 -0.04299,-6.095767 -0.457663,-8.069221 -0.709741,-3.377735 -2.085995,-6.018794 -4.000247,-7.676533 -1.010813,-0.875362 -3.25707,-2.021582 -4.736989,-2.417191 -1.658596,-0.44337 -5.2016,-0.531961 -6.967164,-0.174212 -3.839225,0.777926 -5.568009,1.852945 -10.958895,6.814618 -5.674131,5.222363 -8.69668,7.213169 -13.245862,8.724399 -1.019931,0.33882 -1.814679,0.62441 -1.766111,0.63465 0.112508,0.0237 41.10766,3.30809 41.622081,3.33459 0.345709,0.0178 0.395832,-0.0971 0.51085,-1.1711 z M 51.986045,81.393427 c 1.323494,-0.626733 2.480718,-1.542803 5.715334,-4.52429 1.477902,-1.362246 3.312674,-2.996999 4.077274,-3.632786 3.961518,-3.294127 8.656169,-5.804939 13.163067,-7.039926 0.884575,-0.242393 1.633645,-0.466046 1.664604,-0.497006 0.03098,-0.03096 -9.01992,-0.770507 -20.113067,-1.643438 L 36.323898,62.468834 36.182752,62.91423 c -0.184299,0.581597 0.0054,4.251755 0.324116,6.273572 0.813445,5.158845 2.838777,8.748503 6.139803,10.882057 2.888672,1.867043 6.970214,2.445475 9.339374,1.323568 z M 70.687106,32.695231 C 42.57291,30.470697 19.553667,28.631848 19.533228,28.6089 c -0.0516,-0.05793 1.196541,-15.922799 1.258459,-15.996047 0.02756,-0.03262 9.255802,0.666045 20.507186,1.55257 47.458894,3.739408 67.679727,5.329315 74.500157,5.857735 3.98259,0.308555 7.31475,0.626779 7.4048,0.707164 0.0999,0.0892 -0.0586,3.089868 -0.40687,7.700344 -0.59003,7.811356 -0.64719,8.362456 -0.86404,8.329057 -0.071,-0.01094 -23.131617,-1.839956 -51.245814,-4.064492 z"/>
</svg>
